# xmcd
#
# Track frame offsets:
#	150
#	17860
#	35872
#	77070
#	109102
#	142445
#
# Disc length: 2157 seconds
#
# Revision: 1
# Processed by: cddbd v1.5.1PL0 Copyright (c) Steve Scherf et al.
# Submitted via: MusicWizard 7.0.2
#
DISCID=55086b06
DTITLE=Paris Red Featuring Doctor Delite - Love Hurts
DYEAR=1997
DGENRE=Rap - Hip Hop - Black
TTITLE0=Love Hurts
TTITLE1=Love Hurts ( Short R&B "Bounced Back" Mix )
TTITLE2=Love Hurts ( Factory A.M. Mind Trip Mix )
TTITLE3=Love Hurts ( Terry Lee Brown Junior Remix )
TTITLE4=Love Hurts ( Extended R&B "Bounced Back" Mix )
TTITLE5=Love Hurts ( Smooth )
EXTD=
EXTT0=
EXTT1=
EXTT2=
EXTT3=
EXTT4=
EXTT5=
PLAYORDER=
